M48
INCH,TZ
T1C0.0157
T2C0.0315
T3C0.0354
T4C0.0400
T5C0.0402
T6C0.0642
%
G90
G05
T1
X45300Y-32500
T2
X44016Y-33983
X44016Y-34770
X44016Y-35557
X44804Y-33983
X44804Y-34770
X44804Y-35557
T3
X47992Y-32754
X47992Y-33754
X47992Y-34754
X47992Y-35754
X48992Y-33250
X48992Y-34250
X48992Y-35250
X48992Y-36250
T4
X48670Y-29040
T5
X53425Y-31894
X53425Y-32894
X53425Y-36110
X53425Y-37110
T6
X50295Y-31453
X50295Y-37551
T0
M30
